<svg width="218" height="193" viewBox="0 0 218 193" fill="none" xmlns="http://www.w3.org/2000/svg">
<g filter="url(#filter0_d_1_2)">
<path d="M29.2878 138.637C29.2878 149.304 38.2632 158.765 47.1552 163.493C53.5931 166.917 61.2861 169.314 68.6365 168.832C82.6638 167.912 95.8838 158.428 106.774 150.267C116.419 143.04 122.718 133.827 125.963 122.2C131.419 102.647 132.52 81.9074 133.759 61.7555C134.465 50.2808 134.621 38.8473 134.621 27.3598" stroke="white" stroke-width="3" stroke-linecap="round"/>
<path d="M134.291 28.3504C131.352 31.6692 128.925 35.4714 126.073 38.8801C121.671 44.1402 117.19 49.3262 112.828 54.6196C110.971 56.8724 109.071 59.1315 107.031 61.2235C106.645 61.6196 106.398 61.8625 105.894 62.0307" stroke="white" stroke-width="3" stroke-linecap="round"/>
<path d="M135.282 27.69C147.568 40.9216 160.205 53.8429 172.594 66.9837C175.822 70.408 179.064 73.8408 182.078 77.4583C182.238 77.6496 182.863 78.2104 182.5 78.2104" stroke="white" stroke-width="3" stroke-linecap="round"/>
</g>
<defs>
<filter id="filter0_d_1_2" x="-4" y="0" width="226" height="201" filterUnits="userSpaceOnUse" color-interpolation-filters="sRGB">
<feFlood flood-opacity="0" result="BackgroundImageFix"/>
<feColorMatrix in="SourceAlpha" type="matrix" values="0 0 0 0 0 0 0 0 0 0 0 0 0 0 0 0 0 0 127 0" result="hardAlpha"/>
<feOffset dy="4"/>
<feGaussianBlur stdDeviation="2"/>
<feComposite in2="hardAlpha" operator="out"/>
<feColorMatrix type="matrix" values="0 0 0 0 0 0 0 0 0 0 0 0 0 0 0 0 0 0 0.25 0"/>
<feBlend mode="normal" in2="BackgroundImageFix" result="effect1_dropShadow_1_2"/>
<feBlend mode="normal" in="SourceGraphic" in2="effect1_dropShadow_1_2" result="shape"/>
</filter>
</defs>
</svg>
